PathFileType	4	(X/Y/Z)	C:\Users\Basilio\Documents\Thesis Gigler\squatting_fais\c3dfiles\047\SLS_pre_back4\markers_experimental.trc
DataRate	CameraRate	NumFrames	NumMarkers	Units	OrigDataRate	OrigDataStartFrame	OrigNumFrames
200.000000	200.000000	4	61	mm	200.000000	158	1267
Frame#	Time	FHD			LBHD			RBHD			C7			T10			CLAV			LSHO			LUUPA			LMUPA			LDUPA			LLEP			LMEP			LRAD			LUL			LRFIN			RSHO			RUPA1			RMUPA			RDUPA			RLEP			RMEP			RUL			RUFIN			LASI			RASI			USACR			LSACR			RSACR			LTHI1			LTHI2			LTHI3			LTHI4			LLFC			LMFC			LTIB1			LTIB2			LTIB3			LTIB4			LLMAL			LMMAL			LMT1			LMT2			LMT5			RTHI			RTHI2			RTHI3			RTHI4			RLFC			RMFC			RTIB1			RTIB2			RTIB3			RTIB4			RLMAL			RMMAL			RHEE			RMT1			RMT2			RMT5			RRAD			*60			
		X1	Y1	Z1	X2	Y2	Z2	X3	Y3	Z3	X4	Y4	Z4	X5	Y5	Z5	X6	Y6	Z6	X7	Y7	Z7	X8	Y8	Z8	X9	Y9	Z9	X10	Y10	Z10	X11	Y11	Z11	X12	Y12	Z12	X13	Y13	Z13	X14	Y14	Z14	X15	Y15	Z15	X16	Y16	Z16	X17	Y17	Z17	X18	Y18	Z18	X19	Y19	Z19	X20	Y20	Z20	X21	Y21	Z21	X22	Y22	Z22	X23	Y23	Z23	X24	Y24	Z24	X25	Y25	Z25	X26	Y26	Z26	X27	Y27	Z27	X28	Y28	Z28	X29	Y29	Z29	X30	Y30	Z30	X31	Y31	Z31	X32	Y32	Z32	X33	Y33	Z33	X34	Y34	Z34	X35	Y35	Z35	X36	Y36	Z36	X37	Y37	Z37	X38	Y38	Z38	X39	Y39	Z39	X40	Y40	Z40	X41	Y41	Z41	X42	Y42	Z42	X43	Y43	Z43	X44	Y44	Z44	X45	Y45	Z45	X46	Y46	Z46	X47	Y47	Z47	X48	Y48	Z48	X49	Y49	Z49	X50	Y50	Z50	X51	Y51	Z51	X52	Y52	Z52	X53	Y53	Z53	X54	Y54	Z54	X55	Y55	Z55	X56	Y56	Z56	X57	Y57	Z57	X58	Y58	Z58	X59	Y59	Z59	X60	Y60	Z60	X61	Y61	Z61	

159	0.79	-177.4719543457032	1745.889770507813	-1105.172607421875	-351.2395324707032	1695.552490234375	-1133.254638671875	-330.0705871582032	1700.730224609375	-986.1143798828127	-361.5685729980469	1516.5146484375	-1063.818237304688	-371.0730285644532	1207.534912109375	-1036.44970703125	-211.9620361328126	1463.10498046875	-1087.690063476563	-285.3589172363282	1473.289184570313	-1241.163208007813	-213.7838134765626	1326.214111328125	-1338.1875	-172.7026977539063	1352.639282226563	-1334.563354492188	-151.0234680175782	1298.383056640625	-1349.931274414063	-77.9003372192383	1287.787353515625	-1354.271118164063	-95.70413970947267	1234.435424804688	-1289.288330078125	65.19710540771486	1405.651977539063	-1175.428833007813	107.2875061035157	1342.533081054688	-1169.68212890625	155.0697021484375	1420.6982421875	-1165.788208007813	-247.3773345947266	1496.268798828125	-925.4461059570315	-149.8629608154297	1352.419189453125	-826.525573730469	-110.533447265625	1374.202880859375	-845.924011230469	-87.2899627685547	1320.805053710938	-831.2871704101565	-14.12151527404786	1307.856811523438	-847.539978027344	-43.02264022827149	1242.401977539063	-902.803649902344	148.0733795166016	1352.328735351563	-1050.630615234375	121.9350051879883	1436.626953125	-1079.607177734375	-199.5249481201172	983.4829101562502	-1129.008544921875	-190.5753631591797	1005.323059082031	-898.5782470703127	-375.0499572753907	1075.268798828125	-1016.9033203125	-381.8694152832032	1042.132568359375	-1042.050903320313	-377.5403137207032	1046.719848632813	-984.1448974609377	-287.8903503417969	828.3401489257815	-1185.535766601563	-255.8553466796876	749.9995117187501	-1181.674926757813	-206.884017944336	752.6323242187501	-1169.448852539063	-286.7786865234376	697.6519165039064	-1172.873291015625	-321.5079650878907	528.0233154296876	-1129.000732421875	-291.7110290527344	521.8007812500001	-1007.461669921875	-293.8890991210938	346.7119750976563	-1029.152221679688	-304.8729553222657	297.3217773437501	-1101.228637695313	-287.3613586425782	296.4008178710938	-1056.819702148438	-300.7269897460938	221.5991821289063	-1022.715515136719	-353.9981384277344	123.7304611206055	-1060.763549804688	-329.4506225585938	140.7301635742188	-976.3170166015627	-209.8823699951172	63.79187393188478	-992.9875488281252	-209.4084625244141	60.19344329833986	-1037.67431640625	-259.4192810058594	48.00949859619142	-1081.33935546875	-244.4030151367188	826.387634277344	-790.6768188476565	-195.0390777587891	781.1130371093752	-783.8836669921877	-165.5915832519532	786.275329589844	-796.3151855468752	-205.3638305664063	698.1811523437501	-774.0147705078127	-180.364990234375	567.6282348632814	-782.1293945312502	-174.2124633789063	533.0951538085939	-908.078308105469	-262.3294982910157	474.3438720703126	-780.430847167969	-361.2768859863282	511.0813598632814	-749.2702026367189	-343.8980407714844	467.4106750488282	-753.1510620117189	-385.7748107910157	433.3580322265626	-780.2590942382815	-550.2070312500001	444.8232727050782	-749.6630249023439	-525.0886840820314	404.1287231445314	-829.0661621093752	-579.4141845703126	485.0940246582032	-814.9377441406252	-585.4584350585939	278.0195312500001	-798.639831542969	-587.1199340820314	278.9290771484376	-752.8193359375001	-624.9892578125001	333.0199584960938	-711.7498168945314	80.30068206787111	1367.958129882813	-1081.20166015625	nan	nan	nan	
160	0.795	-177.2145690917969	1745.968872070313	-1105.21337890625	-351.5440063476563	1696.142578125	-1133.106201171875	-329.9781799316407	1700.730834960938	-986.0606079101565	-361.4759826660157	1516.57568359375	-1063.815063476563	-371.0637817382813	1207.577514648438	-1036.438720703125	-211.9287261962891	1463.067626953125	-1087.672241210938	-285.2582397460938	1473.342041015625	-1241.120727539063	-213.6714172363282	1326.294799804688	-1338.153564453125	-172.6453552246094	1352.713134765625	-1334.501586914063	-150.9244842529297	1298.412231445313	-1349.88427734375	-77.71605682373048	1287.911376953125	-1354.220703125	-95.3994827270508	1234.790405273438	-1288.936279296875	65.42402648925783	1405.65771484375	-1175.397705078125	107.0885391235352	1342.462768554688	-1169.30712890625	155.2801971435547	1420.625732421875	-1165.658203125	-247.3391571044922	1496.338134765625	-925.4041748046877	-149.7849273681641	1352.510375976563	-826.4742431640627	-110.4433746337891	1374.252807617188	-845.825622558594	-87.2404251098633	1320.8173828125	-831.1837158203127	-14.08852767944336	1307.8779296875	-847.4050903320315	-42.99936676025391	1242.456787109375	-902.6653442382815	148.4200134277344	1351.984985351563	-1049.960815429688	122.0348281860352	1436.6328125	-1079.570068359375	-199.5950012207032	983.5391235351565	-1128.9482421875	-190.5687255859375	1005.354736328125	-898.617858886719	-375.0743408203126	1075.3212890625	-1016.913818359375	-378.5943298339844	1041.417724609375	-1042.446411132813	-377.4834899902344	1046.69580078125	-984.1855468750002	-287.8816528320313	828.451843261719	-1185.561767578125	-255.840316772461	750.0432128906251	-1181.6962890625	-206.8720855712891	752.6115722656251	-1169.4375	-286.8655395507813	697.6384277343751	-1172.90869140625	-321.6524353027344	528.0381469726564	-1129.087890625	-291.8926696777344	521.8789672851564	-1007.462768554688	-293.8978576660157	346.7698669433594	-1029.190307617188	-304.8839721679688	297.4792785644532	-1101.314086914063	-287.3820800781251	296.3861083984376	-1056.908935546875	-300.7674255371094	221.6311950683594	-1022.7392578125	-353.9851684570313	123.7450027465821	-1060.814819335938	-329.4078369140626	140.9488830566407	-976.4613037109377	-209.8472900390626	63.81760025024415	-993.0780029296877	-209.5627746582032	60.10087966918947	-1037.79931640625	-259.4261169433594	47.97409820556641	-1081.326904296875	-244.4464874267579	826.352966308594	-790.7135009765627	-195.090316772461	781.1219482421877	-783.9238281250002	-165.5449371337891	786.302429199219	-796.4562988281252	-205.3981170654297	698.1790771484376	-774.1136474609377	-180.3400115966797	567.6886596679689	-782.2546997070315	-174.2967224121094	533.1259765625001	-908.0891723632815	-262.3179016113282	474.3986816406251	-780.5457153320315	-361.2854614257813	511.0896301269532	-749.2203979492189	-343.9140930175782	467.4227905273439	-753.1441650390626	-385.7596130371095	433.3809509277345	-780.3022460937502	-550.1864013671876	444.908416748047	-749.6376953125001	-525.0778808593751	404.2106933593751	-828.9829101562502	-579.4246826171876	485.2351379394532	-814.8583984375002	-585.5090942382814	278.2796936035157	-798.580261230469	-587.1105957031251	278.9751586914063	-752.7415161132814	-624.9515991210939	333.0689392089844	-711.6455078125001	80.44683074951173	1368.035278320313	-1081.019287109375	nan	nan	nan	
161	0.8	-177.1372833251953	1745.8740234375	-1105.205078125	-350.9527282714844	1695.614868164063	-1133.283447265625	-329.6970520019532	1700.809326171875	-986.1253662109377	-361.4302368164063	1516.591064453125	-1063.772338867188	-371.0479431152344	1207.70068359375	-1036.443725585938	-211.8968963623047	1463.121826171875	-1087.61328125	-285.1948242187501	1473.391845703125	-1241.104614257813	-213.5300445556641	1326.33984375	-1338.194580078125	-172.4946441650391	1352.943115234375	-1334.455322265625	-150.8021087646485	1298.538208007813	-1349.850463867188	-77.5796585083008	1288.03369140625	-1354.194458007813	-94.7873001098633	1234.8310546875	-1288.471313476563	65.60935211181642	1405.65673828125	-1175.327270507813	107.3310317993164	1342.45654296875	-1169.282592773438	155.5589294433594	1420.504272460938	-1165.568237304688	-247.2832641601563	1496.350219726563	-925.3601684570315	-149.9757690429688	1352.77001953125	-827.1223144531252	-110.2903213500977	1374.363891601563	-845.9068603515627	-87.19311523437501	1320.889282226563	-831.0432739257815	-14.01808643341065	1307.944702148438	-847.2821044921877	-42.89286041259766	1242.505249023438	-902.6314086914065	148.670883178711	1351.858154296875	-1049.860229492188	122.1934890747071	1436.665893554688	-1079.547241210938	-199.6737060546876	983.5802001953127	-1128.89453125	-190.6835021972657	1005.388854980469	-898.5037231445315	-375.0625610351563	1075.2998046875	-1016.944580078125	-381.9740600585938	1042.256713867188	-1042.078491210938	-377.5774230957032	1046.750854492188	-984.2190551757815	-287.9032287597657	828.474548339844	-1185.6103515625	-255.9519042968751	750.0949707031251	-1181.760131835938	-206.9411621093751	752.6672363281251	-1169.498168945313	-286.9580078125001	697.7174682617189	-1172.919921875	-321.8577270507813	528.1735839843751	-1129.115356445313	-292.0031127929688	521.9401245117189	-1007.439025878906	-293.8757324218751	346.8682250976563	-1029.40673828125	-305.0794677734376	297.5116882324219	-1101.3994140625	-287.5045776367188	296.4914245605469	-1056.939208984375	-300.7684326171876	221.6606903076172	-1022.623046875	-353.9780578613282	123.7244567871094	-1060.82080078125	-329.4016418457032	140.7757720947266	-976.3574829101565	-209.8021850585938	63.78734588623048	-993.0971679687502	-209.5812225341797	60.09056472778322	-1037.804809570313	-259.4691162109376	47.96739578247071	-1081.352294921875	-244.4991149902344	826.3869628906252	-790.7398071289065	-195.1258392333985	781.1323242187502	-783.9644775390627	-165.6314392089844	786.3355712890627	-796.4328613281252	-205.3945465087891	698.0673217773439	-774.088317871094	-180.3682708740235	567.6635742187501	-782.3476562500002	-174.3173522949219	533.1656494140626	-908.1614990234377	-262.3588867187501	474.428924560547	-780.5806884765627	-361.2934265136719	511.1193847656251	-749.1878051757814	-343.9176025390626	467.4451293945314	-753.1350708007814	-385.7706298828126	433.3897094726564	-780.3376464843752	-550.2016601562501	444.9382934570314	-749.5438232421876	-525.1854858398439	404.2707824707032	-828.9343261718752	-579.5280761718751	485.1524353027345	-814.7098388671877	-585.5057983398439	278.3184204101563	-798.4400634765627	-587.1099853515626	278.9933471679688	-752.6142578125001	-624.9172363281251	333.1473388671876	-711.5111694335939	80.57298278808595	1368.047485351563	-1080.845703125	nan	nan	nan	
162	0.805	-177.0056304931641	1745.844482421875	-1105.205688476563	-350.8379821777344	1695.645141601563	-1133.2626953125	-330.1485595703126	1700.661865234375	-985.4050292968752	-361.3612060546876	1516.635498046875	-1063.793212890625	-371.0872192382813	1207.6767578125	-1036.438110351563	-211.8661346435547	1463.14990234375	-1087.53955078125	-285.1249694824219	1473.478149414063	-1241.094604492188	-213.3383026123047	1326.448364257813	-1338.201782226563	-172.4461517333985	1353.071655273438	-1334.446411132813	-150.7133026123047	1298.707641601563	-1349.826904296875	-77.36458587646486	1288.187744140625	-1354.164794921875	-94.27892303466798	1234.973999023438	-1288.0458984375	65.80207824707033	1405.65576171875	-1175.260009765625	107.8421325683594	1342.457153320313	-1169.4619140625	155.85400390625	1420.411743164063	-1165.486694335938	-247.227035522461	1496.420166015625	-925.3301391601565	-149.9090423583985	1352.828735351563	-827.0045166015627	-110.275260925293	1374.435302734375	-845.849792480469	-87.17855834960939	1320.940551757813	-831.0378417968752	-13.9652738571167	1307.994873046875	-847.1585083007815	-42.61582946777344	1242.68017578125	-902.2545166015627	149.0090637207032	1351.84716796875	-1049.959594726563	122.2996444702149	1436.6142578125	-1079.415405273438	-199.5599975585938	983.5925903320315	-1128.921875	-190.7154846191407	1005.385864257813	-898.4830322265627	-375.0657958984376	1075.349853515625	-1016.988159179688	-381.9738159179688	1042.33349609375	-1042.07470703125	-377.5935668945313	1046.727661132813	-984.2487792968752	-287.9723510742188	828.5277099609377	-1185.641845703125	-255.9988403320313	750.1198730468751	-1181.754272460938	-206.9588928222657	752.6660156250001	-1169.52685546875	-287.0859985351563	697.7760620117189	-1172.955322265625	-321.9928588867188	528.2375488281251	-1129.1748046875	-292.0993652343751	521.9857788085939	-1007.497863769531	-293.9878540039063	346.9013061523438	-1029.212524414063	-305.1747741699219	297.5897521972657	-1101.432983398438	-287.6316528320313	296.5517272949219	-1056.900756835938	-300.8186645507813	221.6271209716797	-1022.803039550781	-353.9952392578126	123.736686706543	-1060.852783203125	-329.4024353027344	140.9929351806641	-976.5650634765627	-209.8536987304688	63.76068115234376	-993.0957031250002	-209.5558624267579	60.09671020507814	-1037.780151367188	-259.4291076660157	47.93255615234376	-1081.37890625	-244.5249481201172	826.397155761719	-790.7631835937502	-195.1464996337891	781.1192626953127	-784.0232543945315	-165.629623413086	786.360046386719	-796.5203857421877	-205.3660583496094	698.2780151367189	-774.2481079101565	-180.384017944336	567.6891479492189	-782.3228759765627	-173.9920654296875	532.5725097656251	-908.2783813476565	-262.3508300781251	474.486541748047	-780.592468261719	-361.2923583984376	511.1470031738282	-749.1776733398439	-343.9281311035157	467.4613037109376	-753.0949096679689	-385.7935180664064	433.440887451172	-780.3519287109377	-550.1974487304689	444.9959411621095	-749.4692382812501	-525.1549682617189	404.2581787109376	-828.8425292968752	-579.5864868164064	485.2478637695314	-814.6956787109377	-585.4628295898439	278.2970581054688	-798.3386230468752	-587.1090698242189	279.0643615722657	-752.5141601562501	-624.8887329101564	333.1935119628907	-711.4105834960939	80.74709320068361	1368.032958984375	-1080.858764648438	nan	nan	nan	
